# xmcd CD database file
#
# Track frame offsets:
#	150
#	20044
#	40230
#	59452
#	79816
#	98721
#	117925
#	139748
#	156978
#	177145
#	194660
#	213156
#
# Disc length: 3124 seconds
#
# Revision: 0
# Processed by: cddbd v1.5.2PL0 Copyright (c) Steve Scherf et al.
# Submitted via: CDex 1.70beta2
#
DISCID=a70c320c
DTITLE=Eddie Herrera - Amor de locos
DYEAR=1900
DGENRE=Merengue
TTITLE0=Estoy dolido
TTITLE1=No le cuentes
TTITLE2=Mínimo
TTITLE3=Amor de locos (version rap)
TTITLE4=Sigue tu camino
TTITLE5=Cómo te olvido
TTITLE6=Quisiera mentirte
TTITLE7=Que tonto fui
TTITLE8=Te buscaré
TTITLE9=Me duele que te vas
TTITLE10=Como hago
TTITLE11=El que no sabe de amor
EXTD=
EXTT0=
EXTT1=
EXTT2=
EXTT3=
EXTT4=
EXTT5=
EXTT6=
EXTT7=
EXTT8=
EXTT9=
EXTT10=
EXTT11=
PLAYORDER=
